<svg width="536" height="144" viewBox="0 0 536 144" version="1.1" xmlns="http://www.w3.org/2000/svg" xmlns:xlink="http://www.w3.org/1999/xlink" xmlns:figma="http://www.figma.com/figma/ns">
<title>gamba-climbing</title>
<desc>Created using Figma</desc>
<g id="Canvas" transform="translate(-1337 -1410)" figma:type="canvas">
<g id="gamba-climbing" figma:type="frame">
<g id="gamba" figma:type="text">
<use xlink:href="#path0_fill" transform="translate(1331 1384)" fill="#78F0BE"/>
</g>
<g id="!" figma:type="text">
<use xlink:href="#path1_fill" transform="matrix(0.990268 0.139173 -0.139173 0.990268 1832.69 1371.52)" fill="#78F0BE"/>
</g>
</g>
</g>
<defs>
<path id="path0_fill" d="M 78.624 143.904L 25.632 139.152L 28.944 128.64L 42.912 131.664L 74.448 124.752L 77.904 79.392L 58.176 75.072L 78.336 73.632L 78.336 63.12L 20.88 63.12L 6.912 74.784L 10.656 124.752L 19.008 126.624L 8.208 139.584L 14.256 156L 71.568 168.816L 82.08 157.44L 78.624 143.904ZM 54.432 118.848L 30.816 118.848L 32.832 76.8L 51.984 75.504L 54.432 118.848ZM 160.692 125.904L 164.436 74.352L 153.204 63.12L 95.3156 63.12L 95.3156 73.632L 135.78 76.8L 136.5 88.608L 96.1796 92.064L 89.8436 102L 92.8676 132.672L 108.564 140.16L 140.1 130.656L 145.716 138L 171.492 138L 171.492 127.488L 160.692 125.904ZM 138.66 123.6L 115.476 124.752L 116.628 101.712L 137.076 96.816L 138.66 123.6ZM 292.228 125.904L 295.972 74.064L 282.868 61.392L 244.42 69.024L 237.508 61.392L 202.084 68.304L 195.604 61.392L 178.756 64.992L 182.356 132.24L 190.708 138L 204.82 138L 207.124 79.536L 226.132 78.816L 229.588 138L 246.436 138L 248.884 79.536L 267.172 78.816L 270.34 131.232L 277.108 138L 303.028 138L 303.028 127.488L 292.228 125.904ZM 372.016 60.816L 338.752 68.736L 340.048 32.88L 325.072 28.128L 297.856 33.744L 297.856 44.112L 309.808 44.112L 314.128 138L 324.496 138L 334.144 131.808L 363.952 140.304L 383.104 131.52L 387.424 73.632L 372.016 60.816ZM 358.192 76.944L 361.216 124.032L 336.88 124.032L 338.464 78.24L 358.192 76.944ZM 470.77 125.904L 474.514 74.352L 463.282 63.12L 405.394 63.12L 405.394 73.632L 445.858 76.8L 446.578 88.608L 406.258 92.064L 399.922 102L 402.946 132.672L 418.642 140.16L 450.178 130.656L 455.794 138L 481.57 138L 481.57 127.488L 470.77 125.904ZM 448.738 123.6L 425.554 124.752L 426.706 101.712L 447.154 96.816L 448.738 123.6Z"/>
<path id="path1_fill" d="M 20.88 151.22L 40.68 151.22L 46.26 43.22L 27.9 35.66L 6.48 43.04L 11.7 144.56L 20.88 151.22ZM 10.26 180.74L 23.4 180.74L 42.66 172.46L 42.66 158.24L 20.7 158.24L 10.26 162.92L 10.26 180.74Z"/>
</defs>
</svg>
