<svg width="1212" height="282" viewBox="0 0 1212 282" version="1.1" xmlns="http://www.w3.org/2000/svg" xmlns:xlink="http://www.w3.org/1999/xlink" xmlns:figma="http://www.figma.com/figma/ns">
<title>ganba-logo</title>
<desc>Created using Figma</desc>
<g id="Canvas" transform="matrix(2 0 0 2 720 1220)" figma:type="canvas">
<g id="ganba-logo" figma:type="frame">
<g id="ganba.tv" figma:type="text">
<use xlink:href="#path0_fill" transform="translate(-366 -638)" fill="#3C4645"/>
</g>
</g>
</g>
<defs>
<path id="path0_fill" d="M 78.624 143.904L 25.632 139.152L 28.944 128.64L 42.912 131.664L 74.448 124.752L 77.904 79.392L 58.176 75.072L 78.336 73.632L 78.336 63.12L 20.88 63.12L 6.912 74.784L 10.656 124.752L 19.008 126.624L 8.208 139.584L 14.256 156L 71.568 168.816L 82.08 157.44L 78.624 143.904ZM 54.432 118.848L 30.816 118.848L 32.832 76.8L 51.984 75.504L 54.432 118.848ZM 160.692 125.904L 164.436 74.352L 153.204 63.12L 95.3156 63.12L 95.3156 73.632L 135.78 76.8L 136.5 88.608L 96.1796 92.064L 89.8436 102L 92.8676 132.672L 108.564 140.16L 140.1 130.656L 145.716 138L 171.492 138L 171.492 127.488L 160.692 125.904ZM 138.66 123.6L 115.476 124.752L 116.628 101.712L 137.076 96.816L 138.66 123.6ZM 252.052 125.76L 255.796 74.064L 242.548 61.392L 202.804 69.168L 195.604 61.392L 178.756 64.992L 182.356 132.24L 190.708 138L 204.82 138L 207.124 79.536L 226.996 78.816L 230.02 131.376L 236.932 138L 262.852 138L 262.852 127.488L 252.052 125.76ZM 331.797 60.816L 298.533 68.736L 299.829 32.88L 284.853 28.128L 257.637 33.744L 257.637 44.112L 269.589 44.112L 273.909 138L 284.277 138L 293.925 131.808L 323.733 140.304L 342.885 131.52L 347.205 73.632L 331.797 60.816ZM 317.973 76.944L 320.997 124.032L 296.661 124.032L 298.245 78.24L 317.973 76.944ZM 430.551 125.904L 434.295 74.352L 423.063 63.12L 365.175 63.12L 365.175 73.632L 405.639 76.8L 406.359 88.608L 366.039 92.064L 359.703 102L 362.727 132.672L 378.423 140.16L 409.959 130.656L 415.575 138L 441.351 138L 441.351 127.488L 430.551 125.904ZM 408.519 123.6L 385.335 124.752L 386.487 101.712L 406.935 96.816L 408.519 123.6ZM 458.407 140.16L 468.631 138.432L 470.359 123.312L 458.407 119.856L 446.599 123.312L 448.327 138.432L 458.407 140.16ZM 521.912 76.08L 521.912 65.568L 508.232 62.112L 509.096 41.952L 499.448 38.064L 478.568 64.416L 482.024 132.24L 490.376 138L 519.608 138L 519.608 124.752L 505.64 122.16L 507.656 76.08L 521.912 76.08ZM 596.387 60.816L 582.275 70.464L 578.243 125.472L 562.691 125.472L 558.803 70.464L 544.547 60.816L 529.283 65.568L 540.083 132.672L 570.467 140.304L 600.995 132.672L 611.651 65.568L 596.387 60.816Z"/>
</defs>
</svg>
